{"accessors" : [{"bufferView" : 0, "byteOffset" : 0, "componentType" : 5123, "count" : 2022, "type" : "SCALAR", "max" : [1627], "min" : [0]}, {"bufferView" : 1, "byteOffset" : 0, "componentType" : 5126, "count" : 1628, "type" : "VEC3", "max" : [4.222368240356445, 6.3648529052734375, 7.029827117919922], "min" : [-4.222368240356445, -0.0013186931610107422, 3.954028844833374], "name" : "POSITION"}, {"bufferView" : 1, "byteOffset" : 12, "componentType" : 5126, "count" : 1628, "type" : "VEC3", "max" : [1.000003695487976, 0.9999471306800842, 1.0000044107437134], "min" : [-1.0000025033950806, -0.999948263168335, -1.0000044107437134], "name" : "NORMAL"}, {"bufferView" : 1, "byteOffset" : 24, "componentType" : 5126, "count" : 1628, "type" : "VEC2", "max" : [0.9841567277908325, -0.010672450065612793], "min" : [0.018459606915712357, -0.9767849445343018], "name" : "TEXCOORD_0"}, {"bufferView" : 0, "byteOffset" : 4044, "componentType" : 5123, "count" : 5364, "type" : "SCALAR", "max" : [5363], "min" : [0]}, {"bufferView" : 2, "byteOffset" : 0, "componentType" : 5126, "count" : 5364, "type" : "VEC3", "max" : [3.0066330432891846, 6.5756025314331055, 7.459386825561523], "min" : [-3.541173219680786, 0.512177586555481, 3.5297791957855225], "name" : "POSITION"}, {"bufferView" : 2, "byteOffset" : 12, "componentType" : 5126, "count" : 5364, "type" : "VEC3", "max" : [1.0000044107437134, 0.9999940395355225, 1.0000044107437134], "min" : [-1.0000044107437134, -0.9999940991401672, -1.0000044107437134], "name" : "NORMAL"}, {"bufferView" : 2, "byteOffset" : 24, "componentType" : 5126, "count" : 5364, "type" : "VEC2", "max" : [0.9893850684165955, -0.0013214647769927979], "min" : [-0.007320582866668701, -1.0007768869400024], "name" : "TEXCOORD_0"}, {"bufferView" : 0, "byteOffset" : 14772, "componentType" : 5123, "count" : 420, "type" : "SCALAR", "max" : [339], "min" : [0]}, {"bufferView" : 3, "byteOffset" : 0, "componentType" : 5126, "count" : 340, "type" : "VEC3", "max" : [2.6745386123657227, 4.956216812133789, 3.9534924030303955], "min" : [2.5189006328582764, 4.800579071044922, 3.9219934940338135], "name" : "POSITION"}, {"bufferView" : 3, "byteOffset" : 12, "componentType" : 5126, "count" : 340, "type" : "VEC3", "max" : [0.6293758749961853, 0.6293990015983582, -0.7770829796791077], "min" : [-0.62938392162323, -0.6293742060661316, -1.0000044107437134], "name" : "NORMAL"}, {"bufferView" : 3, "byteOffset" : 24, "componentType" : 5126, "count" : 340, "type" : "VEC2", "max" : [1.0000001192092896, -0], "min" : [0, -1], "name" : "TEXCOORD_0"}, {"bufferView" : 0, "byteOffset" : 15612, "componentType" : 5123, "count" : 420, "type" : "SCALAR", "max" : [339], "min" : [0]}, {"bufferView" : 4, "byteOffset" : 0, "componentType" : 5126, "count" : 340, "type" : "VEC3", "max" : [-3.105207920074463, 4.956216812133789, 3.9534924030303955], "min" : [-3.26084566116333, 4.800579071044922, 3.9219934940338135], "name" : "POSITION"}, {"bufferView" : 4, "byteOffset" : 12, "componentType" : 5126, "count" : 340, "type" : "VEC3", "max" : [0.6293793320655823, 0.629401683807373, -0.7770751714706421], "min" : [-0.6293838620185852, -0.6293780207633972, -1.0000042915344238], "name" : "NORMAL"}, {"bufferView" : 4, "byteOffset" : 24, "componentType" : 5126, "count" : 340, "type" : "VEC2", "max" : [1.0000001192092896, -0], "min" : [0, -1], "name" : "TEXCOORD_0"}, {"bufferView" : 0, "byteOffset" : 16452, "componentType" : 5123, "count" : 210, "type" : "SCALAR", "max" : [209], "min" : [0]}, {"bufferView" : 5, "byteOffset" : 0, "componentType" : 5126, "count" : 210, "type" : "VEC3", "max" : [0.936233401298523, 3.0576858520507812, 0.9564299583435059], "min" : [-1.3478496074676514, 2.5212111473083496, -4.396367073059082], "name" : "POSITION"}, {"bufferView" : 5, "byteOffset" : 12, "componentType" : 5126, "count" : 210, "type" : "VEC3", "max" : [1.0000044107437134, 0.9999934434890747, 0.9998237490653992], "min" : [-1.0000042915344238, -0.9998412728309631, -0.9999713897705078], "name" : "NORMAL"}, {"bufferView" : 5, "byteOffset" : 24, "componentType" : 5126, "count" : 210, "type" : "VEC2", "max" : [0.2636569142341614, -0.02206626534461975], "min" : [0.009589554741978645, -0.9892279505729675], "name" : "TEXCOORD_0"}, {"bufferView" : 0, "byteOffset" : 16872, "componentType" : 5123, "count" : 168, "type" : "SCALAR", "max" : [167], "min" : [0]}, {"bufferView" : 6, "byteOffset" : 0, "componentType" : 5126, "count" : 168, "type" : "VEC3", "max" : [0.8913981318473816, 3.360180377960205, 2.8970677852630615], "min" : [-1.3035259246826172, 2.5560107231140137, -7.459386825561523], "name" : "POSITION"}, {"bufferView" : 6, "byteOffset" : 12, "componentType" : 5126, "count" : 168, "type" : "VEC3", "max" : [1.0000042915344238, 1.0000042915344238, 0.0012313619954511523], "min" : [-1.0000042915344238, -1.0000042915344238, -0.9814824461936951], "name" : "NORMAL"}, {"bufferView" : 6, "byteOffset" : 24, "componentType" : 5126, "count" : 168, "type" : "VEC2", "max" : [0.5269366502761841, -0.007956837303936481], "min" : [0.02274179458618164, -0.9902223944664001], "name" : "TEXCOORD_0"}, {"bufferView" : 0, "byteOffset" : 17208, "componentType" : 5123, "count" : 1944, "type" : "SCALAR", "max" : [1943], "min" : [0]}, {"bufferView" : 7, "byteOffset" : 0, "componentType" : 5126, "count" : 1944, "type" : "VEC3", "max" : [0.8913981318473816, 3.360180377960205, 2.9736101627349854], "min" : [-1.3035259246826172, 2.556009531021118, -7.459386825561523], "name" : "POSITION"}, {"bufferView" : 7, "byteOffset" : 12, "componentType" : 5126, "count" : 1944, "type" : "VEC3", "max" : [1.0000044107437134, 1.0000042915344238, 1.0000044107437134], "min" : [-1.0000044107437134, -1.0000044107437134, -1.0000044107437134], "name" : "NORMAL"}, {"bufferView" : 7, "byteOffset" : 24, "componentType" : 5126, "count" : 1944, "type" : "VEC2", "max" : [0.985806941986084, -0.562401294708252], "min" : [0.5596417784690857, -0.9859904050827026], "name" : "TEXCOORD_0"}, {"bufferView" : 0, "byteOffset" : 21096, "componentType" : 5123, "count" : 576, "type" : "SCALAR", "max" : [470], "min" : [0]}, {"bufferView" : 8, "byteOffset" : 0, "componentType" : 5126, "count" : 471, "type" : "VEC3", "max" : [1.3713462352752686, 3.064237356185913, 3.9693102836608887], "min" : [-1.9247381687164307, 0.03516674041748047, -3.4110360145568848], "name" : "POSITION"}, {"bufferView" : 8, "byteOffset" : 12, "componentType" : 5126, "count" : 471, "type" : "VEC3", "max" : [1.0000044107437134, 1.0000044107437134, 0.7804559469223022], "min" : [-1.0000044107437134, -0.4826582968235016, -0.9981665015220642], "name" : "NORMAL"}, {"bufferView" : 8, "byteOffset" : 24, "componentType" : 5126, "count" : 471, "type" : "VEC2", "max" : [0.9811946749687195, -0.0019920319318771362], "min" : [0.005704626441001892, -0.9980080723762512], "name" : "TEXCOORD_0"}], "asset" : {"generator" : "Aspose.3D 22.7", "version" : "2.0"}, "buffers" : [{"uri" : "data:application/octet-stream;base64,", "byteLength" : 378252}], "bufferViews" : [{"buffer" : 0, "byteOffset" : 0, "byteLength" : 22248, "target" : 34963}, {"buffer" : 0, "byteOffset" : 22252, "byteLength" : 64704, "byteStride" : 32, "target" : 34962}, {"buffer" : 0, "byteOffset" : 86960, "byteLength" : 171648, "byteStride" : 32, "target" : 34962}, {"buffer" : 0, "byteOffset" : 258612, "byteLength" : 13440, "byteStride" : 32, "target" : 34962}, {"buffer" : 0, "byteOffset" : 272056, "byteLength" : 13440, "byteStride" : 32, "target" : 34962}, {"buffer" : 0, "byteOffset" : 285500, "byteLength" : 6720, "byteStride" : 32, "target" : 34962}, {"buffer" : 0, "byteOffset" : 292224, "byteLength" : 5376, "byteStride" : 32, "target" : 34962}, {"buffer" : 0, "byteOffset" : 297604, "byteLength" : 62208, "byteStride" : 32, "target" : 34962}, {"buffer" : 0, "byteOffset" : 359816, "byteLength" : 18432, "byteStride" : 32, "target" : 34962}], "images" : [{"uri" : "data:image/jpeg;base64,"}, {"uri" : "data:image/jpeg;base64,"}, {"uri" : "data:image/jpeg;base64,"}, {"uri" : "data:text/plain;base64,"}, {"uri" : "data:image/jpeg;base64,"}], "materials" : [{"name" : "blinn6", "pbrMetallicRoughness" : {"baseColorFactor" : [1, 1, 1, 1], "baseColorTexture" : {"index" : 0, "texCoord" : 0}, "metallicFactor" : 0, "roughnessFactor" : 0}, "emissiveFactor" : [0, 0, 0], "alphaMode" : "OPAQUE", "doubleSided" : false}, {"name" : "blinn1", "pbrMetallicRoughness" : {"baseColorFactor" : [1, 1, 1, 1], "baseColorTexture" : {"index" : 1, "texCoord" : 0}, "metallicFactor" : 0, "roughnessFactor" : 0}, "emissiveFactor" : [0, 0, 0], "alphaMode" : "OPAQUE", "doubleSided" : false}, {"name" : "blinn2", "pbrMetallicRoughness" : {"baseColorFactor" : [1, 0, 0, 1], "metallicFactor" : 0, "roughnessFactor" : 0}, "emissiveFactor" : [0, 0, 0], "alphaMode" : "OPAQUE", "doubleSided" : false}, {"name" : "blinn2", "pbrMetallicRoughness" : {"baseColorFactor" : [1, 0, 0, 1], "metallicFactor" : 0, "roughnessFactor" : 0}, "emissiveFactor" : [0, 0, 0], "alphaMode" : "OPAQUE", "doubleSided" : false}, {"name" : "blinn3", "pbrMetallicRoughness" : {"baseColorFactor" : [1, 1, 1, 1], "baseColorTexture" : {"index" : 2, "texCoord" : 0}, "metallicFactor" : 0, "roughnessFactor" : 0}, "emissiveFactor" : [0, 0, 0], "alphaMode" : "OPAQUE", "doubleSided" : false}, {"name" : "blinn3", "pbrMetallicRoughness" : {"baseColorFactor" : [1, 1, 1, 1], "baseColorTexture" : {"index" : 2, "texCoord" : 0}, "metallicFactor" : 0, "roughnessFactor" : 0}, "emissiveFactor" : [0, 0, 0], "alphaMode" : "OPAQUE", "doubleSided" : false}, {"name" : "blinn4", "pbrMetallicRoughness" : {"baseColorFactor" : [1, 1, 1, 1], "baseColorTexture" : {"index" : 3, "texCoord" : 0}, "metallicFactor" : 0, "roughnessFactor" : 0}, "emissiveFactor" : [0, 0, 0], "alphaMode" : "OPAQUE", "doubleSided" : false}, {"name" : "blinn5", "pbrMetallicRoughness" : {"baseColorFactor" : [1, 1, 1, 1], "baseColorTexture" : {"index" : 4, "texCoord" : 0}, "metallicFactor" : 0, "roughnessFactor" : 0}, "emissiveFactor" : [0, 0, 0], "alphaMode" : "OPAQUE", "doubleSided" : false}], "meshes" : [{"primitives" : [{"attributes" : {"POSITION" : 1, "NORMAL" : 2, "TEXCOORD_0" : 3}, "indices" : 0, "material" : 0, "mode" : 4}], "name" : ""}, {"primitives" : [{"attributes" : {"POSITION" : 5, "NORMAL" : 6, "TEXCOORD_0" : 7}, "indices" : 4, "material" : 1, "mode" : 4}], "name" : ""}, {"primitives" : [{"attributes" : {"POSITION" : 9, "NORMAL" : 10, "TEXCOORD_0" : 11}, "indices" : 8, "material" : 2, "mode" : 4}], "name" : ""}, {"primitives" : [{"attributes" : {"POSITION" : 13, "NORMAL" : 14, "TEXCOORD_0" : 15}, "indices" : 12, "material" : 3, "mode" : 4}], "name" : ""}, {"primitives" : [{"attributes" : {"POSITION" : 17, "NORMAL" : 18, "TEXCOORD_0" : 19}, "indices" : 16, "material" : 4, "mode" : 4}], "name" : ""}, {"primitives" : [{"attributes" : {"POSITION" : 21, "NORMAL" : 22, "TEXCOORD_0" : 23}, "indices" : 20, "material" : 5, "mode" : 4}, {"attributes" : {"POSITION" : 25, "NORMAL" : 26, "TEXCOORD_0" : 27}, "indices" : 24, "material" : 6, "mode" : 4}], "name" : ""}, {"primitives" : [{"attributes" : {"POSITION" : 29, "NORMAL" : 30, "TEXCOORD_0" : 31}, "indices" : 28, "material" : 7, "mode" : 4}], "name" : ""}], "nodes" : [{"mesh" : 0, "name" : "frame"}, {"mesh" : 2, "name" : "red1"}, {"mesh" : 3, "name" : "red"}, {"children" : [1, 2], "mesh" : 1, "name" : "mission"}, {"mesh" : 4, "name" : "lock"}, {"mesh" : 5, "name" : "table"}, {"mesh" : 6, "name" : "groun"}, {"children" : [0, 3, 4, 5, 6], "name" : "CTSCANNER"}], "samplers" : [{"magFilter" : 9729, "minFilter" : 9729, "wrapS" : 10497, "wrapT" : 10497}, {"magFilter" : 9729, "minFilter" : 9729, "wrapS" : 10497, "wrapT" : 10497}, {"magFilter" : 9729, "minFilter" : 9729, "wrapS" : 10497, "wrapT" : 10497}, {"magFilter" : 9729, "minFilter" : 9729, "wrapS" : 10497, "wrapT" : 10497}, {"magFilter" : 9729, "minFilter" : 9729, "wrapS" : 10497, "wrapT" : 10497}], "scene" : 0, "scenes" : [{"nodes" : [7]}], "textures" : [{"sampler" : 0, "source" : 0, "name" : "file6"}, {"sampler" : 1, "source" : 1, "name" : "file1"}, {"sampler" : 2, "source" : 2, "name" : "file2"}, {"sampler" : 3, "source" : 3, "name" : "file3"}, {"sampler" : 4, "source" : 4, "name" : "file4"}]}